<svg width="1600" height="1200" viewBox="0 0 1600 1200" fill="none" xmlns="http://www.w3.org/2000/svg">
  <defs>
    <linearGradient id="bg" x1="280" y1="40" x2="1300" y2="1160" gradientUnits="userSpaceOnUse">
      <stop stop-color="#10161D"/>
      <stop offset="1" stop-color="#05070B"/>
    </linearGradient>
    <linearGradient id="phone" x1="0" y1="0" x2="1" y2="1">
      <stop stop-color="#161F28"/>
      <stop offset="1" stop-color="#0B1117"/>
    </linearGradient>
    <linearGradient id="accent" x1="0" y1="0" x2="1" y2="1">
      <stop stop-color="#C7FF45"/>
      <stop offset="1" stop-color="#6BE56C"/>
    </linearGradient>
  </defs>
  <rect width="1600" height="1200" rx="64" fill="url(#bg)"/>
  <circle cx="1170" cy="180" r="170" fill="#C7FF45" opacity=".12"/>
  <circle cx="340" cy="1040" r="210" fill="#34D386" opacity=".09"/>
  <rect x="220" y="160" width="1160" height="880" rx="40" fill="#0B1016" stroke="#27333E"/>
  <text x="300" y="250" fill="#F3FAFF" font-family="Arial, sans-serif" font-size="48" font-weight="700">PWA lista para recepcion y control</text>
  <text x="300" y="306" fill="#8097A8" font-family="Arial, sans-serif" font-size="24">Una misma experiencia en escritorio, tableta y celular</text>
  <rect x="300" y="380" width="324" height="118" rx="28" fill="#151F28"/>
  <text x="342" y="426" fill="#7F96A8" font-family="Arial, sans-serif" font-size="17">Acceso directo</text>
  <text x="342" y="474" fill="#F6FBFF" font-family="Arial, sans-serif" font-size="36" font-weight="700">Instalable</text>
  <rect x="300" y="530" width="324" height="118" rx="28" fill="#151F28"/>
  <text x="342" y="576" fill="#7F96A8" font-family="Arial, sans-serif" font-size="17">Modo rapido</text>
  <text x="342" y="624" fill="#F6FBFF" font-family="Arial, sans-serif" font-size="36" font-weight="700">Recepcion movil</text>
  <rect x="300" y="680" width="324" height="244" rx="28" fill="#151F28"/>
  <text x="342" y="734" fill="#F6FBFF" font-family="Arial, sans-serif" font-size="26" font-weight="700">Flujo recomendado</text>
  <circle cx="360" cy="788" r="10" fill="#C7FF45"/>
  <text x="390" y="796" fill="#F6FBFF" font-family="Arial, sans-serif" font-size="20">Entrar al turno</text>
  <circle cx="360" cy="842" r="10" fill="#7AAAFF"/>
  <text x="390" y="850" fill="#F6FBFF" font-family="Arial, sans-serif" font-size="20">Cobrar o renovar</text>
  <circle cx="360" cy="896" r="10" fill="#53DA8A"/>
  <text x="390" y="904" fill="#F6FBFF" font-family="Arial, sans-serif" font-size="20">Ver reportes rapidos</text>
  <rect x="734" y="274" width="372" height="654" rx="54" fill="#0B1118" stroke="#35424D" stroke-width="10"/>
  <rect x="850" y="296" width="140" height="22" rx="11" fill="#1F2B35"/>
  <rect x="758" y="340" width="324" height="540" rx="36" fill="url(#phone)"/>
  <text x="810" y="408" fill="#C7FF45" font-family="Arial, sans-serif" font-size="22" font-weight="700">FLEXGYM APP</text>
  <text x="810" y="450" fill="#F7FCFF" font-family="Arial, sans-serif" font-size="42" font-weight="700">Ingreso rapido</text>
  <rect x="810" y="486" width="220" height="56" rx="18" fill="#111922" stroke="#33424D"/>
  <text x="842" y="521" fill="#73899A" font-family="Arial, sans-serif" font-size="18">Buscar cliente</text>
  <rect x="810" y="570" width="220" height="56" rx="18" fill="#111922" stroke="#33424D"/>
  <text x="842" y="605" fill="#73899A" font-family="Arial, sans-serif" font-size="18">Metodo de acceso</text>
  <rect x="810" y="660" width="220" height="60" rx="30" fill="url(#accent)"/>
  <text x="862" y="698" fill="#0A1108" font-family="Arial, sans-serif" font-size="20" font-weight="700">ESCANEAR</text>
  <rect x="810" y="752" width="220" height="88" rx="24" fill="#111922" stroke="#33424D"/>
  <text x="842" y="792" fill="#7F96A8" font-family="Arial, sans-serif" font-size="16">Estado</text>
  <text x="842" y="828" fill="#F7FCFF" font-family="Arial, sans-serif" font-size="22" font-weight="700">Turno activo</text>
  <rect x="1160" y="380" width="156" height="156" rx="30" fill="#151F28"/>
  <rect x="1198" y="420" width="80" height="80" rx="20" fill="#0B1118"/>
  <path d="M1220 442H1256V478H1220V442Z" stroke="#C7FF45" stroke-width="8"/>
  <path d="M1234 456H1242" stroke="#C7FF45" stroke-width="8" stroke-linecap="round"/>
  <path d="M1248 456H1256" stroke="#C7FF45" stroke-width="8" stroke-linecap="round"/>
  <rect x="1160" y="566" width="156" height="156" rx="30" fill="#151F28"/>
  <text x="1190" y="624" fill="#7F96A8" font-family="Arial, sans-serif" font-size="16">Caja</text>
  <text x="1190" y="680" fill="#F7FCFF" font-family="Arial, sans-serif" font-size="34" font-weight="700">$680</text>
  <rect x="1160" y="752" width="156" height="156" rx="30" fill="#151F28"/>
  <text x="1190" y="810" fill="#7F96A8" font-family="Arial, sans-serif" font-size="16">Activos</text>
  <text x="1190" y="866" fill="#F7FCFF" font-family="Arial, sans-serif" font-size="34" font-weight="700">87</text>
</svg>
