<svg width="1600" height="1200" viewBox="0 0 1600 1200" fill="none" xmlns="http://www.w3.org/2000/svg">
  <defs>
    <linearGradient id="bg" x1="240" y1="80" x2="1360" y2="1120" gradientUnits="userSpaceOnUse">
      <stop stop-color="#10161C"/>
      <stop offset="1" stop-color="#05070B"/>
    </linearGradient>
    <linearGradient id="card" x1="0" y1="0" x2="1" y2="1">
      <stop stop-color="#18212B"/>
      <stop offset="1" stop-color="#0E1319"/>
    </linearGradient>
    <linearGradient id="accent" x1="0" y1="0" x2="1" y2="1">
      <stop stop-color="#C7FF45"/>
      <stop offset="1" stop-color="#5AE28C"/>
    </linearGradient>
  </defs>
  <rect width="1600" height="1200" rx="64" fill="url(#bg)"/>
  <circle cx="1260" cy="220" r="180" fill="#C7FF45" opacity=".12"/>
  <circle cx="360" cy="1030" r="190" fill="#2ED17F" opacity=".1"/>
  <rect x="192" y="120" width="1216" height="960" rx="42" fill="#0B1016" stroke="#29343E"/>
  <rect x="192" y="120" width="1216" height="88" rx="42" fill="#1A232C"/>
  <text x="270" y="172" fill="#F0F8FE" font-family="Arial, sans-serif" font-size="26" font-weight="700">CENTRO DE SEGUIMIENTO</text>
  <rect x="1120" y="140" width="208" height="48" rx="24" fill="#111820" stroke="#364550"/>
  <text x="1172" y="170" fill="#D6E5F1" font-family="Arial, sans-serif" font-size="20" font-weight="700">REPORTES</text>
  <rect x="240" y="246" width="360" height="278" rx="30" fill="url(#card)" stroke="#26323C"/>
  <text x="286" y="304" fill="#7E95A7" font-family="Arial, sans-serif" font-size="18">Renovaciones en 48h</text>
  <text x="286" y="366" fill="#F8FCFF" font-family="Arial, sans-serif" font-size="64" font-weight="700">29</text>
  <text x="286" y="406" fill="#C7FF45" font-family="Arial, sans-serif" font-size="20" font-weight="700">+8 frente a ayer</text>
  <rect x="286" y="444" width="268" height="20" rx="10" fill="#152029"/>
  <rect x="286" y="444" width="184" height="20" rx="10" fill="url(#accent)"/>
  <rect x="624" y="246" width="532" height="278" rx="30" fill="url(#card)" stroke="#26323C"/>
  <text x="672" y="304" fill="#F3FAFF" font-family="Arial, sans-serif" font-size="28" font-weight="700">Ingresos y tendencia</text>
  <text x="672" y="342" fill="#7E95A7" font-family="Arial, sans-serif" font-size="18">Vista rapida para administracion y direccion</text>
  <path d="M694 456C746 476 768 452 816 402C854 362 886 376 934 318C974 270 1010 286 1080 250" stroke="#C7FF45" stroke-width="12" stroke-linecap="round"/>
  <circle cx="694" cy="456" r="10" fill="#C7FF45"/>
  <circle cx="816" cy="402" r="10" fill="#C7FF45"/>
  <circle cx="934" cy="318" r="10" fill="#C7FF45"/>
  <circle cx="1080" cy="250" r="10" fill="#C7FF45"/>
  <rect x="672" y="470" width="156" height="22" rx="11" fill="#132029"/>
  <rect x="846" y="470" width="118" height="22" rx="11" fill="#132029"/>
  <rect x="982" y="470" width="124" height="22" rx="11" fill="#132029"/>
  <rect x="1180" y="246" width="180" height="278" rx="30" fill="url(#card)" stroke="#26323C"/>
  <text x="1218" y="304" fill="#7E95A7" font-family="Arial, sans-serif" font-size="18">Alertas</text>
  <text x="1218" y="368" fill="#F8FCFF" font-family="Arial, sans-serif" font-size="58" font-weight="700">14</text>
  <text x="1218" y="410" fill="#F89A7A" font-family="Arial, sans-serif" font-size="18" font-weight="700">8 vencimientos hoy</text>
  <rect x="240" y="560" width="556" height="472" rx="34" fill="url(#card)" stroke="#26323C"/>
  <text x="286" y="622" fill="#F3FAFF" font-family="Arial, sans-serif" font-size="30" font-weight="700">Resumen del dia</text>
  <text x="286" y="662" fill="#7E95A7" font-family="Arial, sans-serif" font-size="18">Bloques para caja, renovaciones y movimiento</text>
  <rect x="286" y="710" width="212" height="126" rx="24" fill="#101821"/>
  <text x="320" y="756" fill="#7E95A7" font-family="Arial, sans-serif" font-size="16">Caja cerrada</text>
  <text x="320" y="804" fill="#F8FCFF" font-family="Arial, sans-serif" font-size="40" font-weight="700">$2.840</text>
  <rect x="520" y="710" width="230" height="126" rx="24" fill="#101821"/>
  <text x="554" y="756" fill="#7E95A7" font-family="Arial, sans-serif" font-size="16">Membresias activas</text>
  <text x="554" y="804" fill="#F8FCFF" font-family="Arial, sans-serif" font-size="40" font-weight="700">87</text>
  <rect x="286" y="864" width="464" height="122" rx="24" fill="#101821"/>
  <circle cx="332" cy="916" r="10" fill="#C7FF45"/>
  <text x="360" y="924" fill="#F6FBFF" font-family="Arial, sans-serif" font-size="21">Renovacion confirmada en sede norte</text>
  <circle cx="332" cy="960" r="10" fill="#7AAAFF"/>
  <text x="360" y="968" fill="#F6FBFF" font-family="Arial, sans-serif" font-size="21">Turno de caja sin diferencias</text>
  <rect x="828" y="560" width="532" height="472" rx="34" fill="url(#card)" stroke="#26323C"/>
  <text x="874" y="622" fill="#F3FAFF" font-family="Arial, sans-serif" font-size="30" font-weight="700">Panel operativo</text>
  <text x="874" y="662" fill="#7E95A7" font-family="Arial, sans-serif" font-size="18">Lectura rapida para decisiones del dia</text>
  <rect x="874" y="714" width="440" height="76" rx="22" fill="#101821"/>
  <text x="912" y="758" fill="#F6FBFF" font-family="Arial, sans-serif" font-size="21" font-weight="700">Ingresos por metodo de pago</text>
  <rect x="912" y="816" width="36" height="156" rx="18" fill="#24313C"/>
  <rect x="962" y="770" width="36" height="202" rx="18" fill="#24313C"/>
  <rect x="1012" y="724" width="36" height="248" rx="18" fill="url(#accent)"/>
  <rect x="1062" y="792" width="36" height="180" rx="18" fill="#24313C"/>
  <rect x="1112" y="742" width="36" height="230" rx="18" fill="#24313C"/>
  <rect x="1162" y="838" width="36" height="134" rx="18" fill="#24313C"/>
  <rect x="1212" y="780" width="36" height="192" rx="18" fill="#24313C"/>
</svg>
